<mxfile host="app.diagrams.net" agent="Mozilla/5.0 (Windows NT 10.0; Win64; x64) AppleWebKit/537.36 (KHTML, like Gecko) Chrome/137.0.0.0 Safari/537.36" version="27.1.5">
  <diagram name="Dijagram klasa" id="ah4-4o1aJsZ9hj4hK-Dv">
    <mxGraphModel dx="1181" dy="654" grid="1" gridSize="10" guides="1" tooltips="1" connect="1" arrows="1" fold="1" page="1" pageScale="1" pageWidth="827" pageHeight="1169" math="0" shadow="0">
      <root>
        <mxCell id="0" />
        <mxCell id="1" parent="0" />
        <mxCell id="fDnfzG1w70V0ZJ7SQX_a-43" value="&lt;p style=&quot;margin:0px;margin-top:4px;text-align:center;&quot;&gt;&lt;i&gt;NOTIFIKACIJA&lt;/i&gt;&lt;/p&gt;&lt;hr size=&quot;1&quot; style=&quot;border-style:solid;&quot;&gt;&lt;p style=&quot;margin:0px;margin-left:4px;&quot;&gt;ID&lt;br&gt;ID_korisnika&lt;/p&gt;&lt;p style=&quot;margin:0px;margin-left:4px;&quot;&gt;tip&lt;/p&gt;&lt;p style=&quot;margin:0px;margin-left:4px;&quot;&gt;poruka&lt;br&gt;vrijemeSlanja&lt;/p&gt;&lt;hr size=&quot;1&quot; style=&quot;border-style:solid;&quot;&gt;&lt;p style=&quot;margin:0px;margin-left:4px;&quot;&gt;&lt;span style=&quot;background-color: transparent; color: light-dark(rgb(0, 0, 0), rgb(255, 255, 255));&quot;&gt;pratiPromjene()&lt;br&gt;upravljajObavijestima()&lt;br&gt;posaljiObavijest()&lt;/span&gt;&lt;/p&gt;&lt;p style=&quot;margin:0px;margin-left:4px;&quot;&gt;&lt;br&gt;&lt;/p&gt;" style="verticalAlign=top;align=left;overflow=fill;html=1;whiteSpace=wrap;" vertex="1" parent="1">
          <mxGeometry x="60" y="356" width="190" height="162" as="geometry" />
        </mxCell>
        <mxCell id="fDnfzG1w70V0ZJ7SQX_a-44" value="&lt;p style=&quot;margin:0px;margin-top:4px;text-align:center;&quot;&gt;PREPORUKA&lt;/p&gt;&lt;hr size=&quot;1&quot; style=&quot;border-style:solid;&quot;&gt;&lt;p style=&quot;margin:0px;margin-left:4px;&quot;&gt;ID&lt;/p&gt;&lt;p style=&quot;margin:0px;margin-left:4px;&quot;&gt;ID_analize&lt;/p&gt;&lt;p style=&quot;margin:0px;margin-left:4px;&quot;&gt;tip&lt;br&gt;opis&lt;/p&gt;&lt;hr size=&quot;1&quot; style=&quot;border-style:solid;&quot;&gt;&lt;p style=&quot;margin:0px;margin-left:4px;&quot;&gt;&lt;span style=&quot;background-color: transparent; color: light-dark(rgb(0, 0, 0), rgb(255, 255, 255));&quot;&gt;pregledajPreporuku()&lt;/span&gt;&lt;/p&gt;&lt;p style=&quot;margin:0px;margin-left:4px;&quot;&gt;&lt;br&gt;&lt;/p&gt;" style="verticalAlign=top;align=left;overflow=fill;html=1;whiteSpace=wrap;" vertex="1" parent="1">
          <mxGeometry x="650" y="527" width="190" height="130" as="geometry" />
        </mxCell>
        <mxCell id="fDnfzG1w70V0ZJ7SQX_a-45" value="&lt;p style=&quot;margin:0px;margin-top:4px;text-align:center;&quot;&gt;&lt;i&gt;IZVJEÅ TAJ&lt;/i&gt;&lt;/p&gt;&lt;hr size=&quot;1&quot; style=&quot;border-style:solid;&quot;&gt;&lt;p style=&quot;margin:0px;margin-left:4px;&quot;&gt;ID&lt;br&gt;ID_korisnika&lt;/p&gt;&lt;p style=&quot;margin:0px;margin-left:4px;&quot;&gt;naziv&lt;/p&gt;&lt;p style=&quot;margin:0px;margin-left:4px;&quot;&gt;sadrzaj&lt;br&gt;datum&lt;/p&gt;&lt;hr size=&quot;1&quot; style=&quot;border-style:solid;&quot;&gt;&lt;p style=&quot;margin:0px;margin-left:4px;&quot;&gt;generirajIzvjestaj()&lt;/p&gt;&lt;p style=&quot;margin:0px;margin-left:4px;&quot;&gt;pregledajIzvjestaj()&lt;/p&gt;&lt;p style=&quot;margin:0px;margin-left:4px;&quot;&gt;&lt;br&gt;&lt;/p&gt;&lt;p style=&quot;margin:0px;margin-left:4px;&quot;&gt;&lt;br&gt;&lt;/p&gt;" style="verticalAlign=top;align=left;overflow=fill;html=1;whiteSpace=wrap;" vertex="1" parent="1">
          <mxGeometry x="650" y="363" width="190" height="148" as="geometry" />
        </mxCell>
        <mxCell id="fDnfzG1w70V0ZJ7SQX_a-46" value="&lt;p style=&quot;margin:0px;margin-top:4px;text-align:center;&quot;&gt;&lt;i&gt;KORISNIK&lt;/i&gt;&lt;/p&gt;&lt;hr size=&quot;1&quot; style=&quot;border-style:solid;&quot;&gt;&lt;p style=&quot;margin:0px;margin-left:4px;&quot;&gt;ID&lt;/p&gt;&lt;p style=&quot;margin:0px;margin-left:4px;&quot;&gt;korisnickoIme&lt;br&gt;email&lt;br&gt;tipKorisnika&lt;br&gt;Lozinka&lt;br&gt;&lt;br&gt;&lt;/p&gt;&lt;hr size=&quot;1&quot; style=&quot;border-style:solid;&quot;&gt;&lt;p style=&quot;margin:0px;margin-left:4px;&quot;&gt;prijava()&lt;/p&gt;&lt;p style=&quot;margin:0px;margin-left:4px;&quot;&gt;odjava()&lt;/p&gt;&lt;p style=&quot;margin:0px;margin-left:4px;&quot;&gt;&lt;br&gt;&lt;/p&gt;" style="verticalAlign=top;align=left;overflow=fill;html=1;whiteSpace=wrap;" vertex="1" parent="1">
          <mxGeometry x="350" y="356" width="190" height="162" as="geometry" />
        </mxCell>
        <mxCell id="fDnfzG1w70V0ZJ7SQX_a-49" value="" style="endArrow=none;html=1;rounded=0;entryX=0;entryY=0.5;entryDx=0;entryDy=0;exitX=1;exitY=0.5;exitDx=0;exitDy=0;" edge="1" parent="1" source="fDnfzG1w70V0ZJ7SQX_a-43" target="fDnfzG1w70V0ZJ7SQX_a-46">
          <mxGeometry width="50" height="50" relative="1" as="geometry">
            <mxPoint x="270" y="440" as="sourcePoint" />
            <mxPoint x="344.0800000000001" y="436.5799999999998" as="targetPoint" />
          </mxGeometry>
        </mxCell>
        <mxCell id="fDnfzG1w70V0ZJ7SQX_a-50" value="1" style="text;html=1;align=center;verticalAlign=middle;resizable=0;points=[];autosize=1;strokeColor=none;fillColor=none;" vertex="1" parent="1">
          <mxGeometry x="320" y="410" width="30" height="30" as="geometry" />
        </mxCell>
        <mxCell id="fDnfzG1w70V0ZJ7SQX_a-51" value="*" style="text;html=1;align=center;verticalAlign=middle;resizable=0;points=[];autosize=1;strokeColor=none;fillColor=none;" vertex="1" parent="1">
          <mxGeometry x="248.75" y="410" width="30" height="30" as="geometry" />
        </mxCell>
        <mxCell id="fDnfzG1w70V0ZJ7SQX_a-52" value="" style="endArrow=none;html=1;rounded=0;exitX=1;exitY=0.5;exitDx=0;exitDy=0;entryX=0;entryY=0.5;entryDx=0;entryDy=0;" edge="1" parent="1" target="fDnfzG1w70V0ZJ7SQX_a-44">
          <mxGeometry width="50" height="50" relative="1" as="geometry">
            <mxPoint x="530" y="592" as="sourcePoint" />
            <mxPoint x="615" y="594" as="targetPoint" />
          </mxGeometry>
        </mxCell>
        <mxCell id="fDnfzG1w70V0ZJ7SQX_a-53" value="1" style="text;html=1;align=center;verticalAlign=middle;resizable=0;points=[];autosize=1;strokeColor=none;fillColor=none;" vertex="1" parent="1">
          <mxGeometry x="540" y="570" width="30" height="30" as="geometry" />
        </mxCell>
        <mxCell id="fDnfzG1w70V0ZJ7SQX_a-54" value="*" style="text;html=1;align=center;verticalAlign=middle;resizable=0;points=[];autosize=1;strokeColor=none;fillColor=none;" vertex="1" parent="1">
          <mxGeometry x="620" y="572" width="30" height="30" as="geometry" />
        </mxCell>
        <mxCell id="fDnfzG1w70V0ZJ7SQX_a-55" value="" style="endArrow=none;html=1;rounded=0;entryX=0;entryY=0.5;entryDx=0;entryDy=0;exitX=1;exitY=0.5;exitDx=0;exitDy=0;" edge="1" parent="1" source="fDnfzG1w70V0ZJ7SQX_a-46" target="fDnfzG1w70V0ZJ7SQX_a-45">
          <mxGeometry width="50" height="50" relative="1" as="geometry">
            <mxPoint x="445" y="632" as="sourcePoint" />
            <mxPoint x="500" y="802" as="targetPoint" />
          </mxGeometry>
        </mxCell>
        <mxCell id="fDnfzG1w70V0ZJ7SQX_a-61" value="" style="endArrow=none;html=1;rounded=0;exitX=0.5;exitY=0;exitDx=0;exitDy=0;entryX=0.5;entryY=1;entryDx=0;entryDy=0;" edge="1" parent="1" target="fDnfzG1w70V0ZJ7SQX_a-46">
          <mxGeometry width="50" height="50" relative="1" as="geometry">
            <mxPoint x="445" y="562" as="sourcePoint" />
            <mxPoint x="360" y="472" as="targetPoint" />
          </mxGeometry>
        </mxCell>
        <mxCell id="fDnfzG1w70V0ZJ7SQX_a-62" value="*" style="text;html=1;align=center;verticalAlign=middle;resizable=0;points=[];autosize=1;strokeColor=none;fillColor=none;" vertex="1" parent="1">
          <mxGeometry x="425" y="540" width="30" height="30" as="geometry" />
        </mxCell>
        <mxCell id="fDnfzG1w70V0ZJ7SQX_a-63" value="1" style="text;html=1;align=center;verticalAlign=middle;resizable=0;points=[];autosize=1;strokeColor=none;fillColor=none;" vertex="1" parent="1">
          <mxGeometry x="425" y="510" width="30" height="30" as="geometry" />
        </mxCell>
        <mxCell id="fDnfzG1w70V0ZJ7SQX_a-72" value="&lt;p style=&quot;margin:0px;margin-top:4px;text-align:center;&quot;&gt;&lt;i&gt;DIONICA&lt;/i&gt;&lt;/p&gt;&lt;hr size=&quot;1&quot; style=&quot;border-style:solid;&quot;&gt;&lt;p style=&quot;margin:0px;margin-left:4px;&quot;&gt;ID&lt;/p&gt;&lt;p style=&quot;margin:0px;margin-left:4px;&quot;&gt;naziv&lt;/p&gt;&lt;p style=&quot;margin:0px;margin-left:4px;&quot;&gt;simbol&lt;br&gt;sektor&lt;br&gt;trenutnaCijena&lt;/p&gt;&lt;hr size=&quot;1&quot; style=&quot;border-style:solid;&quot;&gt;&lt;p style=&quot;margin:0px;margin-left:4px;&quot;&gt;dohvatiTrenutneCijene()&lt;/p&gt;&lt;p style=&quot;margin:0px;margin-left:4px;&quot;&gt;prikaziDetalje()&lt;/p&gt;&lt;p style=&quot;margin:0px;margin-left:4px;&quot;&gt;&lt;br&gt;&lt;/p&gt;" style="verticalAlign=top;align=left;overflow=fill;html=1;whiteSpace=wrap;" vertex="1" parent="1">
          <mxGeometry x="57.5" y="570" width="192.5" height="152" as="geometry" />
        </mxCell>
        <mxCell id="fDnfzG1w70V0ZJ7SQX_a-84" value="" style="endArrow=none;html=1;rounded=0;entryX=0;entryY=0.75;entryDx=0;entryDy=0;exitX=1;exitY=0.25;exitDx=0;exitDy=0;" edge="1" parent="1" source="fDnfzG1w70V0ZJ7SQX_a-72">
          <mxGeometry width="50" height="50" relative="1" as="geometry">
            <mxPoint x="310" y="590" as="sourcePoint" />
            <mxPoint x="360" y="607" as="targetPoint" />
          </mxGeometry>
        </mxCell>
        <mxCell id="fDnfzG1w70V0ZJ7SQX_a-85" value="1" style="text;html=1;align=center;verticalAlign=middle;resizable=0;points=[];autosize=1;strokeColor=none;fillColor=none;" vertex="1" parent="1">
          <mxGeometry x="250" y="585" width="30" height="30" as="geometry" />
        </mxCell>
        <mxCell id="fDnfzG1w70V0ZJ7SQX_a-86" value="*" style="text;html=1;align=center;verticalAlign=middle;resizable=0;points=[];autosize=1;strokeColor=none;fillColor=none;" vertex="1" parent="1">
          <mxGeometry x="330" y="585" width="30" height="30" as="geometry" />
        </mxCell>
        <mxCell id="fDnfzG1w70V0ZJ7SQX_a-87" value="&lt;p style=&quot;margin:0px;margin-top:4px;text-align:center;&quot;&gt;&lt;i&gt;POVIJEST CIJENA&lt;/i&gt;&lt;/p&gt;&lt;hr size=&quot;1&quot; style=&quot;border-style:solid;&quot;&gt;&lt;p style=&quot;margin:0px;margin-left:4px;&quot;&gt;ID&lt;/p&gt;&lt;p style=&quot;margin:0px;margin-left:4px;&quot;&gt;ID_dionice&lt;br&gt;pocetnaCijena&lt;br&gt;najvisaCijena&lt;br&gt;najnizaCijena&lt;br&gt;zavrsnaCijena&lt;br&gt;volumen&lt;br&gt;interval&lt;/p&gt;&lt;p style=&quot;margin:0px;margin-left:4px;&quot;&gt;vrijeme&lt;/p&gt;&lt;p style=&quot;margin:0px;margin-left:4px;&quot;&gt;izvorPodatka&lt;/p&gt;&lt;hr size=&quot;1&quot; style=&quot;border-style:solid;&quot;&gt;&lt;p style=&quot;margin:0px;margin-left:4px;&quot;&gt;spremiPovijest()&lt;br&gt;prikaziTrendove()&lt;/p&gt;" style="verticalAlign=top;align=left;overflow=fill;html=1;whiteSpace=wrap;" vertex="1" parent="1">
          <mxGeometry x="58.75" y="790" width="190" height="230" as="geometry" />
        </mxCell>
        <mxCell id="fDnfzG1w70V0ZJ7SQX_a-88" value="1" style="text;html=1;align=center;verticalAlign=middle;resizable=0;points=[];autosize=1;strokeColor=none;fillColor=none;" vertex="1" parent="1">
          <mxGeometry x="540" y="410" width="30" height="30" as="geometry" />
        </mxCell>
        <mxCell id="fDnfzG1w70V0ZJ7SQX_a-90" value="*" style="text;html=1;align=center;verticalAlign=middle;resizable=0;points=[];autosize=1;strokeColor=none;fillColor=none;" vertex="1" parent="1">
          <mxGeometry x="620" y="410" width="30" height="30" as="geometry" />
        </mxCell>
        <mxCell id="fDnfzG1w70V0ZJ7SQX_a-91" value="&lt;p style=&quot;margin:0px;margin-top:4px;text-align:center;&quot;&gt;&lt;i&gt;ANALIZA&lt;/i&gt;&lt;/p&gt;&lt;hr size=&quot;1&quot; style=&quot;border-style:solid;&quot;&gt;&lt;p style=&quot;margin:0px;margin-left:4px;&quot;&gt;ID&lt;/p&gt;&lt;p style=&quot;margin:0px;margin-left:4px;&quot;&gt;ID_korisnika&lt;/p&gt;&lt;p style=&quot;margin:0px;margin-left:4px;&quot;&gt;ID_dionice&lt;br&gt;vrsta&lt;br&gt;vrijeme&lt;br&gt;rezultat&lt;/p&gt;&lt;hr size=&quot;1&quot; style=&quot;border-style:solid;&quot;&gt;&lt;p style=&quot;margin:0px;margin-left:4px;&quot;&gt;izvrsiAnalizu()&lt;br&gt;generirajPreporuku()&lt;/p&gt;&lt;p style=&quot;margin:0px;margin-left:4px;&quot;&gt;&lt;br&gt;&lt;/p&gt;" style="verticalAlign=top;align=left;overflow=fill;html=1;whiteSpace=wrap;" vertex="1" parent="1">
          <mxGeometry x="350" y="560" width="192.5" height="170" as="geometry" />
        </mxCell>
        <mxCell id="fDnfzG1w70V0ZJ7SQX_a-92" value="*" style="text;html=1;align=center;verticalAlign=middle;resizable=0;points=[];autosize=1;strokeColor=none;fillColor=none;" vertex="1" parent="1">
          <mxGeometry x="130" y="770" width="30" height="30" as="geometry" />
        </mxCell>
        <mxCell id="fDnfzG1w70V0ZJ7SQX_a-93" value="1" style="text;html=1;align=center;verticalAlign=middle;resizable=0;points=[];autosize=1;strokeColor=none;fillColor=none;" vertex="1" parent="1">
          <mxGeometry x="130" y="722" width="30" height="30" as="geometry" />
        </mxCell>
        <mxCell id="fDnfzG1w70V0ZJ7SQX_a-94" value="" style="endArrow=none;html=1;rounded=0;entryX=0.5;entryY=0;entryDx=0;entryDy=0;exitX=0.5;exitY=1;exitDx=0;exitDy=0;" edge="1" parent="1" source="fDnfzG1w70V0ZJ7SQX_a-72" target="fDnfzG1w70V0ZJ7SQX_a-87">
          <mxGeometry width="50" height="50" relative="1" as="geometry">
            <mxPoint x="300" y="821" as="sourcePoint" />
            <mxPoint x="410" y="820" as="targetPoint" />
          </mxGeometry>
        </mxCell>
      </root>
    </mxGraphModel>
  </diagram>
</mxfile>
